<?xml version="1.0" encoding="UTF-8"?>
<svg id="Layer_1" data-name="Layer 1" xmlns="http://www.w3.org/2000/svg" xmlns:xlink="http://www.w3.org/1999/xlink" viewBox="0 0 480.17 453.39">
  <defs>
    <style>
      .cls-1, .cls-2 {
        fill: #fff;
      }

      .cls-3 {
        fill: #cf242b;
      }

      .cls-4 {
        fill: #f6bd25;
      }

      .cls-5 {
        fill: #464547;
      }

      .cls-5, .cls-6 {
        fill-rule: evenodd;
      }

      .cls-7 {
        fill: none;
        stroke: #f6bd25;
        stroke-width: 4px;
      }

      .cls-8 {
        fill: #19224c;
      }

      .cls-9 {
        fill: url(#radial-gradient);
      }

      .cls-10 {
        fill: #ad191d;
      }

      .cls-11 {
        fill: #231f20;
      }

      .cls-2 {
        stroke: #fff;
        stroke-width: .5px;
      }

      .cls-12 {
        fill: #010101;
      }

      .cls-6 {
        fill: #58595c;
      }
    </style>
    <radialGradient id="radial-gradient" cx="303.87" cy="310.96" fx="303.87" fy="310.96" r="63.58" gradientUnits="userSpaceOnUse">
      <stop offset="0" stop-color="#ffd10f"/>
      <stop offset=".15" stop-color="#fdcc0f"/>
      <stop offset=".3" stop-color="#fac011"/>
      <stop offset=".45" stop-color="#f4ab15"/>
      <stop offset=".61" stop-color="#ec8e19"/>
      <stop offset=".76" stop-color="#e2691f"/>
      <stop offset=".92" stop-color="#d53c27"/>
      <stop offset=".99" stop-color="#cf242b"/>
    </radialGradient>
  </defs>
  <g>
    <path class="cls-1" d="m243.18,411.03c-27.64-7.79-58.57-24.51-92.01-49.73H43.6l25.67-40.75-25.66-40.76h53.88V82.14l3.05-2.4c37.19-29.26,90.62-46.05,146.59-46.05s109.26,17.38,143.39,47.69l2.69,2.39v196.03h54.98l-25.66,40.76,25.67,40.75h-108.96c-33.26,24.97-64.07,41.68-91.65,49.71l-2.2.64-2.21-.62Z"/>
    <path class="cls-1" d="m247.13,41.69c52.26,0,103.73,15.17,138.08,45.67v200.43h48.49l-20.63,32.76,20.63,32.75h-92.85v-3.3c-26.37,20.45-61.27,43.36-95.5,53.32-33.72-9.5-68.14-31.94-94.4-52.26v2.24H58.09l20.63-32.75-20.63-32.76h47.39V86.03c37.49-29.5,89.96-44.34,141.65-44.33m0-16c-57.73,0-112.97,17.41-151.54,47.76l-6.1,4.8v193.53H29.11l15.44,24.53,15.26,24.23-15.26,24.23-15.45,24.53h119.39c33.43,24.92,64.52,41.54,92.51,49.43l4.41,1.24,4.4-1.28c27.91-8.12,58.84-24.72,92.07-49.39h120.8l-15.45-24.53-15.26-24.23,15.26-24.23,15.44-24.53h-61.47V80.17l-5.38-4.77c-35.58-31.59-89.78-49.7-148.7-49.7h0Z"/>
  </g>
  <g>
    <polygon class="cls-11" points="78.11 321.03 56.22 355.78 158.2 355.78 158.2 286.27 56.22 286.27 78.11 321.03"/>
    <polygon class="cls-11" points="434.86 286.27 336.39 286.27 336.39 351.78 333.35 351.78 333.35 355.78 434.86 355.78 412.97 321.03 434.86 286.27"/>
  </g>
  <g>
    <path class="cls-10" d="m339.34,352.62v-63.51h90.04l-20,31.76,20,31.75h-90.04Zm-277.73,0l20-31.75-20-31.76h90.04v63.51H61.61Z"/>
    <path class="cls-4" d="m427.57,290.11l-18.7,29.69-.67,1.07.67,1.07,18.7,29.69h-87.22v-61.51h87.22m-276.92,0v61.51H63.42l18.7-29.69.67-1.07-.67-1.07-18.7-29.69h87.23m280.54-2h-92.85v65.51h92.85l-20.63-32.75,20.63-32.76h0Zm-278.54,0H59.8l20.63,32.76-20.63,32.75h92.85v-65.51h0Z"/>
  </g>
  <g>
    <polygon class="cls-5" points="391.47 335.79 332.49 356.13 351.96 331.84 391.47 335.79"/>
    <polygon class="cls-5" points="99.81 335.64 156.88 355.99 152.21 296.04 99.81 335.64"/>
  </g>
  <path class="cls-8" d="m116.59,99.55h259v208s-100.33,87.75-130.17,87.38-129.33-87.88-129.33-87.88l.5-207.5Z"/>
  <path class="cls-3" d="m119.59,92.05s-2.75,56-2.25,60c58.25-48.5,172.25-65.5,255.75-1.5,0,0,1.5-52,0-58-83.5-58.5-199.5-38-253.5-.5Z"/>
  <g>
    <path class="cls-3" d="m216.09,182.48l6.75-4.84,26.38,4.84,4.62,3.66-5.75,5.22h-20.42l-1.54,7.22,21.2,2.81-6.2,5.56h-16.78l2.98,11.19-6.58,5.71h-13.47l8.79-41.38Z"/>
    <path class="cls-3" d="m255.47,182.48l5.62-4.84,7.82,4.84-5.32,36.91-3.97,4.46h-14.44l10.29-41.38Z"/>
    <path class="cls-3" d="m266.41,223.86l8.8-41.38,4.88-5.34,17.44,5.34c4.14,0,7.23.34,9.28,1.02,2.05.68,3.54,1.93,4.49,3.77.95,1.83,1.15,4.07.59,6.7-.49,2.3-7.42,2.51-8.8,4.17-1.38,1.67,2.92,4.78.91,5.82-1.28.66-2.97,1.2-5.05,1.64,1.49.51,2.54,1.02,3.16,1.53.42.34.98,1.06,1.68,2.18.7,1.11,1.14,1.97,1.33,2.57l8.72,7.27-4.77,4.71h-15.15l-4.47-12.64c-.56-1.64-1.14-2.7-1.74-3.19-.83-.64-1.85-.96-3.08-.96h-1.18l1.14,12.08-3.75,4.5-14.43.21Zm18.7-24.61h5.63c.61,0,1.83-.19,3.66-.56.92-.17,1.74-.6,2.44-1.3.71-.69,1.16-1.49,1.35-2.39.28-1.33.06-2.36-.68-3.07-.73-.71-2.32-1.07-4.76-1.07h-5.87l-1.78,8.4Z"/>
    <path class="cls-3" d="m321.14,180.89l5.7-3.5,30.21,5.09,3.04,3.41-5.35,5.41h-22.47l-1.72,6.59,24.04,3.25-5.4,5.18h-20.84l-2.13,8.17,25.63,4.4-4.95,4.96h-36.56l10.81-42.96Z"/>
  </g>
  <g>
    <path class="cls-3" d="m183.34,155.64l6.25-2.75,7.75,6c-1.73,3.3-7.01,9.05-9.34,11.26-2.33,2.21-4.91,3.88-7.75,5-2.84,1.12-6.2,1.69-10.08,1.69-4.71,0-8.37-.69-10.96-2.06-2.59-1.37-4.48-3.78-5.66-7.23-1.18-3.45-1-7.87.55-13.25,2.06-7.18,5.55-12.7,10.47-16.55,4.92-3.86,10.88-5.78,17.86-5.78,5.46,0,9.44,1.11,11.94,3.32,1.21,1.08,8.82,2.09,9.74,3.61.75,1.25-5.69,6.57-5.69,6.57l-12.6,2.63c-.04-1.32-.19-2.29-.47-2.9-.46-1.03-1.15-1.82-2.07-2.37-.92-.55-2.06-.83-3.4-.83-3.04,0-5.71,1.22-8.03,3.67-1.74,1.81-3.17,4.66-4.29,8.55-1.38,4.81-1.6,8.11-.65,9.89.95,1.78,2.74,2.68,5.38,2.68s3.33-1.2,5.05-2.64c1.72-1.44,4.62-5.76,6-8.5Z"/>
    <path class="cls-3" d="m220.73,168.94l-9.89.2-1.75,2.75-5.5,4.25h-15.25l28.5-45,7.25-4,12.75,1.25,3.25,38.25-1.5,9.25-17.75-.25-.11-6.7Zm1.41-9.37l-.32-15.6-9.21,15.6h9.53Z"/>
    <path class="cls-3" d="m248.34,132.14l7.75-4.75-1.96,38.01,23.71,4.99-5.87,5.7h-34.31l10.68-43.95Z"/>
  </g>
  <polygon class="cls-9" points="304.54 291.41 319.99 250.32 313.62 293.76 344.45 262.51 320.97 299.59 361.84 283.58 325.3 307.91 369.16 309.91 325.88 317.28 350.41 329.9 322.6 326.07 339.4 343.85 316.03 332.76 319.58 357.06 305.51 327.9 301.23 369.54 297.93 335.8 274.27 372.78 289.53 331.62 252.88 355.78 283.56 324.38 240.25 331.55 281.05 315.34 238.57 304.27 282.43 306.06 248.13 278.67 287.47 298.15 267.27 259.17 295.29 292.97 292.69 249.15 304.54 291.41"/>
  <g>
    <path class="cls-1" d="m189.37,152.34l10.73,3.55c-1.73,3.3-3.77,6.05-6.1,8.26-2.33,2.21-4.91,3.88-7.75,5-2.84,1.12-6.2,1.69-10.08,1.69-4.71,0-8.37-.69-10.96-2.06-2.59-1.37-4.48-3.78-5.66-7.23-1.18-3.45-1-7.87.55-13.25,2.06-7.18,5.55-12.7,10.47-16.55,4.92-3.86,10.88-5.78,17.86-5.78,5.46,0,9.44,1.11,11.94,3.32,2.49,2.21,3.84,5.6,4.05,10.18l-12.6,2.63c-.04-1.32-.19-2.29-.47-2.9-.46-1.03-1.15-1.82-2.07-2.37-.92-.55-2.06-.83-3.4-.83-3.04,0-5.71,1.22-8.03,3.67-1.74,1.81-3.17,4.66-4.29,8.55-1.38,4.81-1.6,8.11-.65,9.89.95,1.78,2.74,2.68,5.38,2.68s4.71-.72,6.43-2.16c1.72-1.44,3.28-3.53,4.65-6.28Z"/>
    <path class="cls-1" d="m228.23,162.94h-15.22l-4.16,7.15h-13.7l28.7-43.38h14.64l3.87,43.38h-14.02l-.12-7.15Zm-.09-9.37l-.32-15.6-9.21,15.6h9.53Z"/>
    <path class="cls-1" d="m256.1,126.72h13.41l-9.37,32.68h20.91l-3.07,10.69h-34.31l12.44-43.38Z"/>
  </g>
  <g>
    <path class="cls-1" d="m222.59,177.23h33.13l-1.89,8.88h-19.66l-1.54,7.22h16.78l-1.78,8.37h-16.78l-3.59,16.91h-13.47l8.79-41.38Z"/>
    <path class="cls-1" d="m260.97,177.23h13.44l-10.29,41.38h-13.44l10.29-41.38Z"/>
    <path class="cls-1" d="m270.91,218.61l8.8-41.38h22.33c4.14,0,7.23.34,9.28,1.02,2.05.68,3.54,1.93,4.49,3.77.95,1.83,1.15,4.07.59,6.7-.49,2.3-1.42,4.28-2.8,5.94-1.38,1.67-3.08,3.01-5.09,4.05-1.28.66-2.97,1.2-5.05,1.64,1.49.51,2.54,1.02,3.16,1.53.42.34.98,1.06,1.68,2.18.7,1.11,1.14,1.97,1.33,2.57l3.95,11.99h-15.15l-4.47-12.64c-.56-1.64-1.14-2.7-1.74-3.19-.83-.64-1.85-.96-3.08-.96h-1.18l-3.57,16.79h-13.47Zm18.7-24.61h5.63c.61,0,1.83-.19,3.66-.56.92-.17,1.74-.6,2.44-1.3.71-.69,1.16-1.49,1.35-2.39.28-1.33.06-2.36-.68-3.07-.73-.71-2.32-1.07-4.76-1.07h-5.87l-1.78,8.4Z"/>
    <path class="cls-1" d="m326.64,177.23h35.91l-2.31,8.83h-22.47l-1.72,6.59h20.84l-2.2,8.42h-20.84l-2.13,8.17h23.12l-2.45,9.37h-36.56l10.81-41.38Z"/>
  </g>
  <path class="cls-7" d="m372.97,152.05c-72.12-58-183.13-58-257,0"/>
  <g>
    <path class="cls-1" d="m140.59,106.92c-.37.46-1.29,1.33-2.54,2.06-3.87,2.3-6.05.4-6.65-3-.78-4.52,1.5-8.54,4.67-10.4,1.22-.72,2.26-1.01,2.75-.97-.04,1.01-.08,2.02-.12,3.03-.51.04-1.18.18-2.03.68-1.63.96-2.83,2.98-2.38,5.61.4,2.34,1.76,3.1,3.67,1.97.68-.4,1.41-1.01,1.81-1.48.27.83.55,1.66.82,2.49Z"/>
    <path class="cls-1" d="m144.63,101.77c-.05,1.11-.09,2.21-.14,3.32-.97.53-1.94,1.07-2.91,1.62.34-4.88.7-9.76,1.08-14.64,1.27-.69,2.55-1.37,3.84-2.04,1.71,3.77,3.4,7.56,5.07,11.37-1.03.51-2.06,1.03-3.08,1.56-.37-.88-.75-1.77-1.12-2.65-.92.48-1.83.97-2.74,1.46Zm1.97-3.83c-.28-.69-.56-1.38-.84-2.07-.26-.65-.63-1.6-.91-2.28-.01,0-.02.01-.03.02-.05.85-.04,2.02-.09,2.83-.04.85-.07,1.7-.11,2.55.66-.35,1.32-.7,1.98-1.05Z"/>
    <path class="cls-1" d="m151.13,87.69c.98-.48,1.96-.95,2.94-1.41.45,3.38.91,6.75,1.36,10.13,1.39-.65,2.78-1.29,4.17-1.91.12.98.25,1.96.37,2.93-2.36,1.05-4.71,2.14-7.04,3.28-.6-4.34-1.21-8.69-1.81-13.03Z"/>
    <path class="cls-1" d="m162.74,82.44c.53,4.38,1.06,8.75,1.59,13.13-.98.41-1.95.82-2.93,1.25-.55-4.37-1.1-8.74-1.64-13.11.99-.43,1.99-.86,2.99-1.27Z"/>
    <path class="cls-1" d="m164.79,81.6c2.39-.97,4.8-1.89,7.22-2.77.1.96.2,1.92.31,2.88-1.4.51-2.8,1.03-4.19,1.58.09.81.18,1.63.28,2.44,1.31-.51,2.62-1,3.93-1.48.1.95.2,1.91.31,2.86-1.31.48-2.61.97-3.91,1.47.19,1.67.38,3.33.57,5-.99.38-1.97.77-2.95,1.17-.52-4.38-1.03-8.76-1.55-13.15Z"/>
    <path class="cls-1" d="m185.2,81.18c.37,4.28-1.57,7.62-5.01,8.74-3.46,1.13-5.67-1.25-6.06-4.92-.41-3.84,1.44-7.68,4.93-8.82,3.68-1.19,5.84,1.46,6.14,5Zm-7.9,2.66c.25,2.47,1.31,3.69,2.76,3.22,1.45-.47,2.15-2.4,1.93-4.79-.21-2.28-1.25-3.74-2.72-3.27-1.45.47-2.21,2.4-1.97,4.83Z"/>
    <path class="cls-1" d="m186.28,74.38c.85-.41,2.16-.9,3.7-1.31,1.77-.47,3.06-.51,3.99.02.79.47,1.27,1.32,1.36,2.63.12,1.66-.87,3.11-1.74,3.71,0,.03,0,.05,0,.08.79.18,1.27.94,1.64,2.01.46,1.28.97,3.13,1.22,3.59-1.04.25-2.08.51-3.12.77-.2-.35-.57-1.31-1.03-2.86-.43-1.52-.88-1.75-1.83-1.49-.16.04-.33.09-.49.13.13,1.66.27,3.33.4,4.99-1,.27-2,.55-3,.83-.37-4.37-.75-8.74-1.12-13.11Zm3.51,4.74c.27-.07.53-.14.8-.21,1.15-.31,1.77-1.15,1.69-2.14-.08-1.01-.68-1.42-1.71-1.17-.58.15-.88.28-1.03.36.09,1.05.17,2.11.26,3.16Z"/>
    <path class="cls-1" d="m197.78,84.8c-.31-4.45-.62-8.89-.93-13.34,1.22-.28,2.45-.56,3.68-.82.71,1.24,1.41,2.48,2.11,3.72.72,1.2,1.5,2.85,2.1,4.32.02,0,.03,0,.05,0-.28-1.73-.46-3.58-.57-5.59-.06-1.05-.12-2.1-.19-3.15.95-.19,1.91-.37,2.86-.54.25,4.46.49,8.92.74,13.38-1.08.2-2.16.4-3.23.62-.73-1.35-1.47-2.7-2.22-4.05-.74-1.29-1.61-2.92-2.26-4.42-.02,0-.03,0-.05.01.19,1.79.35,3.8.5,5.96.07,1.1.14,2.19.22,3.29-.93.2-1.86.41-2.79.63Z"/>
    <path class="cls-1" d="m212.21,68.48c.21,4.47.43,8.93.64,13.4-1.03.16-2.06.33-3.09.51-.23-4.46-.46-8.93-.7-13.39,1.05-.18,2.1-.35,3.15-.52Z"/>
    <path class="cls-1" d="m217.88,78.03c-.18,1.06-.35,2.13-.53,3.19-1.07.14-2.14.3-3.2.46.91-4.64,1.85-9.26,2.81-13.89,1.4-.19,2.8-.36,4.2-.52,1.33,4.34,2.63,8.69,3.92,13.06-1.12.11-2.23.23-3.35.35-.28-1.01-.56-2.01-.85-3.02-1,.12-2,.24-3,.37Zm2.47-2.99c-.21-.78-.42-1.56-.63-2.34-.2-.74-.47-1.8-.67-2.58-.01,0-.02,0-.04,0-.14.82-.28,1.95-.42,2.73-.14.82-.27,1.63-.41,2.45.72-.09,1.44-.18,2.16-.27Z"/>
    <path class="cls-1" d="m229.66,66.66c1.02-.25,2.36-.45,3.77-.52,2.27-.12,3.7.24,4.88,1.12,1.31.97,2.16,2.63,2.18,5.11.02,2.73-.87,4.53-2,5.58-1.27,1.2-3.16,1.79-5.43,1.93-1.5.09-2.5.04-3.11-.03-.1-4.39-.2-8.79-.3-13.18Zm3.37,10.36c.15.03.45.01.66,0,2.03-.07,3.49-1.42,3.46-4.45-.03-2.61-1.41-3.8-3.3-3.7-.51.03-.8.08-.96.13.05,2.67.1,5.34.14,8.02Z"/>
    <path class="cls-1" d="m249.53,73.96c-1.4-.03-2.81-.04-4.21-.04,0,.82,0,1.65,0,2.47,1.57,0,3.13.02,4.7.05,0,.98-.01,1.97-.02,2.95-2.6-.06-5.2-.06-7.8-.02-.02-4.48-.04-8.97-.06-13.45,2.57-.04,5.14-.03,7.71.02,0,.98-.01,1.96-.02,2.93-1.5-.03-3-.05-4.5-.04,0,.73,0,1.45,0,2.18,1.41,0,2.82.01,4.23.04,0,.97-.01,1.94-.02,2.91Z"/>
    <path class="cls-1" d="m251.85,66.17c.86-.13,2.11-.21,3.92-.13,1.71.08,2.91.5,3.72,1.27.79.73,1.31,1.97,1.28,3.34-.03,1.36-.46,2.52-1.2,3.23-.98.91-2.35,1.25-3.93,1.17-.29-.01-.58-.05-.76-.08-.02,1.52-.04,3.05-.06,4.57-1.03-.05-2.06-.08-3.09-.11.04-4.42.08-8.84.12-13.27Zm3.06,6.06c.17.03.38.06.71.07,1.24.06,2.02-.61,2.04-1.77.02-1-.57-1.71-1.76-1.77-.47-.02-.79,0-.95.04-.02,1.14-.03,2.29-.05,3.43Z"/>
    <path class="cls-1" d="m264.37,77.08c-.25,1.02-.49,2.03-.74,3.05-1.07-.09-2.15-.18-3.22-.25,1.22-4.4,2.47-8.79,3.73-13.17,1.4.12,2.81.26,4.21.41,1.03,4.6,2.03,9.21,3.01,13.82-1.12-.14-2.23-.27-3.35-.39-.21-1.06-.43-2.12-.64-3.19-1-.1-2-.2-3.01-.29Zm2.66-2.42c-.15-.82-.31-1.64-.47-2.46-.15-.77-.34-1.89-.49-2.71-.01,0-.02,0-.04,0-.19.78-.41,1.88-.6,2.62-.19.78-.38,1.56-.57,2.34.72.07,1.44.14,2.17.21Z"/>
    <path class="cls-1" d="m273.37,67.9c.9-.04,2.25.02,3.82.25,1.8.27,3.07.76,3.92,1.66.71.78,1.08,1.81,1.01,3.12-.09,1.67-1.23,2.67-2.17,2.9,0,.03,0,.05,0,.08.76.51,1.13,1.43,1.36,2.63.29,1.43.56,3.44.76,4-1.05-.19-2.1-.36-3.16-.53-.15-.43-.39-1.51-.66-3.21-.23-1.66-.65-2.06-1.61-2.21-.17-.02-.33-.05-.5-.07-.07,1.68-.15,3.35-.22,5.03-1.02-.15-2.04-.29-3.07-.42.18-4.41.35-8.82.53-13.23Zm2.88,6.06c.27.04.54.08.81.12,1.18.18,1.88-.39,1.93-1.38.05-1.01-.5-1.66-1.54-1.84-.59-.09-.9-.09-1.06-.08-.05,1.06-.09,2.12-.14,3.18Z"/>
    <path class="cls-1" d="m286.18,72.81c-.99-.19-1.98-.38-2.97-.55.05-1,.11-2,.16-3,3.06.55,6.11,1.16,9.15,1.84-.07,1-.13,1.99-.2,2.99-1-.22-2.01-.44-3.01-.65-.22,3.46-.44,6.91-.66,10.37-1.02-.21-2.05-.42-3.08-.62.2-3.46.41-6.92.61-10.38Z"/>
    <path class="cls-1" d="m302.94,82.46c.09-1.53.21-3.31.4-5.38-.02,0-.03,0-.05-.01-.5,1.66-1.14,3.52-1.64,4.87-.5,1.44-1.01,2.89-1.5,4.33-.79-.21-1.58-.42-2.37-.62-.2-1.62-.41-3.25-.61-4.87-.18-1.52-.39-3.58-.51-5.46-.01,0-.02,0-.03,0-.21,1.86-.42,3.82-.58,5.33-.17,1.57-.35,3.15-.52,4.72-.93-.23-1.87-.45-2.8-.66.54-4.39,1.08-8.79,1.63-13.18,1.4.33,2.79.67,4.18,1.02.17,1.26.33,2.52.5,3.77.2,1.56.39,3.43.5,5.11.02,0,.04.01.07.02.45-1.53.97-3.31,1.43-4.62.38-1.11.76-2.22,1.14-3.32,1.36.37,2.71.76,4.06,1.15-.19,4.48-.39,8.97-.6,13.45-.98-.29-1.96-.58-2.94-.85.09-1.6.18-3.19.27-4.79Z"/>
    <path class="cls-1" d="m315.03,85.62c-1.34-.47-2.69-.92-4.04-1.35-.08.81-.16,1.62-.23,2.44,1.51.49,3.01.99,4.51,1.52-.1.97-.2,1.93-.3,2.9-2.49-.87-4.99-1.69-7.5-2.46.4-4.42.81-8.84,1.21-13.27,2.48.76,4.95,1.57,7.41,2.43-.1.96-.2,1.92-.3,2.88-1.44-.5-2.88-.98-4.32-1.45-.07.71-.14,1.43-.21,2.14,1.35.44,2.71.89,4.06,1.36-.1.95-.19,1.91-.29,2.86Z"/>
    <path class="cls-1" d="m316.62,91.71c.46-4.4.93-8.8,1.39-13.21,1.19.43,2.38.87,3.57,1.32.45,1.57.89,3.15,1.33,4.73.47,1.55.9,3.56,1.22,5.3.02,0,.03.01.05.02.04-1.8.18-3.66.41-5.64.12-1.03.24-2.07.36-3.1.91.36,1.83.73,2.74,1.11-.53,4.38-1.05,8.76-1.58,13.13-1.03-.43-2.06-.84-3.09-1.25-.45-1.7-.91-3.4-1.37-5.1-.47-1.65-1-3.68-1.36-5.49-.02,0-.03-.01-.05-.02-.13,1.81-.32,3.81-.55,5.95-.12,1.08-.24,2.17-.36,3.25-.9-.34-1.81-.67-2.71-.99Z"/>
    <path class="cls-1" d="m331.53,86.97c-.94-.41-1.88-.82-2.82-1.22.12-.98.24-1.96.36-2.94,2.91,1.23,5.79,2.52,8.66,3.88-.13.97-.26,1.95-.4,2.92-.94-.45-1.89-.89-2.84-1.33-.44,3.38-.89,6.76-1.33,10.15-.97-.44-1.94-.88-2.91-1.3.43-3.39.86-6.78,1.29-10.17Z"/>
    <path class="cls-1" d="m351.38,100.69c-.67,4.16-3.09,5.62-6.34,3.88-3.27-1.75-4.67-5.67-4.16-9.29.53-3.78,3.05-5.77,6.34-4,3.47,1.87,4.7,5.97,4.15,9.41Zm-7.45-3.91c-.36,2.43.29,4.38,1.66,5.11,1.36.73,2.41-.45,2.77-2.77.34-2.22-.22-4.37-1.6-5.12-1.37-.73-2.48.39-2.83,2.78Z"/>
    <path class="cls-1" d="m353.9,95.25c2.27,1.33,4.52,2.7,6.75,4.11-.16.93-.32,1.86-.48,2.79-1.29-.82-2.59-1.63-3.9-2.42-.13.79-.26,1.59-.4,2.38,1.22.74,2.44,1.49,3.65,2.26-.16.92-.32,1.85-.48,2.77-1.21-.76-2.42-1.51-3.64-2.25-.27,1.63-.54,3.25-.81,4.88-.92-.56-1.85-1.11-2.78-1.65.69-4.29,1.39-8.59,2.08-12.89Z"/>
  </g>
  <g>
    <path class="cls-1" d="m127.82,120.86c2.23-1.42,4.48-2.79,6.75-4.12.15.94.31,1.87.46,2.81-1.31.77-2.62,1.55-3.92,2.35.14.79.27,1.59.41,2.38,1.22-.75,2.45-1.48,3.68-2.21.15.93.31,1.86.46,2.79-1.23.72-2.45,1.45-3.66,2.2.28,1.63.56,3.25.84,4.88-.92.57-1.84,1.14-2.75,1.72-.75-4.27-1.51-8.54-2.26-12.81Z"/>
    <path class="cls-1" d="m147.38,116.65c.61,4.19-1.06,7.88-4.31,9.63-3.26,1.77-5.52-.19-6.11-3.77-.62-3.74.92-7.92,4.21-9.7,3.47-1.87,5.71.37,6.21,3.84Zm-7.44,4.11c.38,2.42,1.48,3.43,2.84,2.7,1.36-.74,1.92-2.79,1.57-5.12-.33-2.23-1.42-3.5-2.81-2.75-1.37.74-1.99,2.8-1.61,5.18Z"/>
    <path class="cls-1" d="m148.02,109.67c.8-.56,2.03-1.29,3.5-1.98,1.68-.79,2.92-1.07,3.86-.71.79.32,1.3,1.08,1.47,2.37.21,1.63-.66,3.25-1.47,4.02,0,.03,0,.05.01.08.77.04,1.28.7,1.7,1.7.52,1.19,1.12,2.94,1.39,3.35-.99.44-1.98.89-2.97,1.34-.21-.31-.62-1.2-1.16-2.66-.5-1.44-.95-1.58-1.85-1.15-.16.07-.31.15-.47.22.23,1.63.45,3.27.68,4.9-.95.45-1.9.92-2.85,1.38-.62-4.28-1.23-8.57-1.85-12.85Zm3.66,4.07c.25-.12.51-.24.76-.36,1.1-.52,1.64-1.47,1.51-2.44-.13-.99-.75-1.29-1.72-.85-.55.26-.84.44-.98.55.14,1.03.29,2.07.43,3.1Z"/>
    <path class="cls-1" d="m165.99,109.78c-1.33.52-2.65,1.06-3.97,1.61.1.81.2,1.61.3,2.42,1.47-.61,2.95-1.21,4.43-1.79.11.96.23,1.93.34,2.89-2.46.96-4.91,1.97-7.34,3.03-.56-4.37-1.12-8.74-1.68-13.11,2.4-1.04,4.82-2.04,7.25-3,.11.96.22,1.92.34,2.87-1.42.56-2.84,1.13-4.25,1.72.09.71.17,1.42.26,2.12,1.33-.55,2.65-1.09,3.99-1.62.11.95.22,1.9.33,2.85Z"/>
    <path class="cls-1" d="m168.52,110.68c.72.15,1.87.15,2.98-.25,1.03-.37,1.48-.96,1.41-1.63-.07-.65-.61-.84-1.92-.89-1.98-.09-3.35-.84-3.58-2.8-.27-2.32,1.19-4.78,4.05-5.8,1.36-.49,2.35-.52,3.15-.39-.12,1.02-.23,2.03-.35,3.05-.51-.09-1.39-.17-2.53.24-.92.33-1.38.91-1.31,1.49.07.67.7.72,2.19.84,2.11.15,3.16,1.12,3.35,2.97.23,2.28-1.07,4.74-4.31,5.91-1.33.49-2.67.55-3.34.39.07-1.04.15-2.09.23-3.13Z"/>
    <path class="cls-1" d="m179.14,99.99c-.97.31-1.93.62-2.9.95-.1-.99-.2-1.98-.3-2.97,2.97-.99,5.96-1.92,8.96-2.78.09.99.17,1.99.26,2.98-.99.28-1.98.58-2.97.87.32,3.44.63,6.87.95,10.31-1.01.3-2.01.62-3.01.94-.33-3.43-.66-6.86-.99-10.29Z"/>
    <path class="cls-1" d="m186.34,94.96c.86-.4,2.17-.88,3.71-1.29,1.77-.46,3.06-.5,3.99.05.79.48,1.27,1.33,1.36,2.64.12,1.66-.87,3.11-1.74,3.7,0,.03,0,.05,0,.08.79.19,1.27.94,1.64,2.02.46,1.28.97,3.13,1.23,3.6-1.04.24-2.08.49-3.12.75-.2-.35-.56-1.31-1.03-2.87-.43-1.52-.88-1.75-1.83-1.51-.17.04-.33.09-.49.13.14,1.67.27,3.33.4,5-1,.27-2,.54-3,.82-.37-4.38-.75-8.75-1.12-13.13Zm3.51,4.76c.27-.07.53-.14.8-.21,1.16-.3,1.77-1.14,1.69-2.13-.08-1.01-.69-1.42-1.71-1.18-.58.15-.89.27-1.04.35.08,1.05.17,2.11.26,3.16Z"/>
    <path class="cls-1" d="m200.16,104.95c-.12-1.8-.24-3.6-.36-5.39-1.39-2.4-2.79-4.78-4.21-7.15,1.19-.28,2.38-.55,3.57-.8.4.93.79,1.87,1.18,2.81.39.86.63,1.5.95,2.29.01,0,.02,0,.03,0,.17-.86.36-1.64.58-2.61.26-1.07.52-2.14.78-3.21,1.17-.23,2.35-.46,3.52-.67-1.13,2.85-2.25,5.71-3.35,8.57.11,1.85.23,3.69.34,5.54-1.02.2-2.04.42-3.06.63Z"/>
    <path class="cls-1" d="m218.95,101.76c-.22-.23-.45-.46-.65-.74-.63.62-1.64,1.25-3.04,1.45-3.03.43-4.32-1.34-4.41-3.18-.09-1.75.69-3.16,2-4.16,0-.02,0-.04,0-.06-.49-.49-.94-1.4-.99-2.37-.09-1.73,1.06-3.84,3.61-4.2,1.96-.27,3.5.83,3.57,2.82.05,1.34-.6,2.59-2.07,3.69,0,.03-.01.05-.01.08.55.59,1.13,1.29,1.64,1.77.42-.85.71-2.11.82-3.1.93-.11,1.85-.22,2.78-.32-.25,2.05-.81,3.87-1.86,5.39.71.84,1.44,1.7,2.2,2.52-1.19.13-2.38.27-3.57.41Zm-3.38-1.94c.53-.07.97-.33,1.22-.61-.77-.7-1.61-1.64-2.47-2.56-.38.44-.62.95-.59,1.59.04.98.72,1.73,1.82,1.58,0,0,.01,0,.02,0Zm-.12-9.12c-.56.08-.85.68-.82,1.24.02.56.28,1.06.84,1.62.67-.71.95-1.21.92-1.83-.02-.54-.34-1.12-.92-1.04,0,0-.01,0-.02,0Z"/>
    <path class="cls-1" d="m226.76,87.46c2.53-.22,5.07-.39,7.6-.52l.05,2.93c-1.47.07-2.94.16-4.41.27.02.83.04,1.66.06,2.49,1.38-.1,2.75-.18,4.13-.25.02.97.03,1.94.05,2.91-1.37.07-2.74.16-4.11.25.04,1.7.08,3.41.11,5.11-1.04.07-2.08.16-3.12.24-.12-4.48-.24-8.96-.36-13.45Z"/>
    <path class="cls-1" d="m239.52,86.74c.04,4.49.08,8.97.12,13.46-1.04.03-2.08.06-3.12.11-.06-4.49-.12-8.97-.18-13.46,1.06-.04,2.12-.08,3.18-.11Z"/>
    <path class="cls-1" d="m241.7,86.87c.9-.18,2.25-.31,3.83-.31,1.81,0,3.11.3,4.01,1.07.75.67,1.17,1.64,1.15,2.96-.01,1.68-1.12,2.85-2.04,3.22v.08c.78.39,1.19,1.26,1.48,2.42.35,1.39.72,3.35.94,3.88-1.06-.03-2.13-.05-3.19-.06-.17-.4-.46-1.44-.8-3.1-.31-1.62-.74-1.96-1.72-1.96-.17,0-.33,0-.5,0,0,1.68,0,3.37,0,5.05-1.03,0-2.06.01-3.09.03-.02-4.43-.05-8.85-.07-13.28Zm3.15,5.62c.27,0,.55,0,.82,0,1.19,0,1.87-.67,1.87-1.67,0-1.02-.57-1.58-1.63-1.61-.59,0-.91.04-1.07.08,0,1.07,0,2.13,0,3.2Z"/>
    <path class="cls-1" d="m259.83,95.15c-1.4-.09-2.8-.17-4.2-.23-.01.83-.02,1.65-.04,2.48,1.56.07,3.13.16,4.69.27-.02.98-.04,1.97-.06,2.95-2.6-.18-5.19-.31-7.79-.39.04-4.49.09-8.97.13-13.46,2.57.08,5.13.21,7.7.38-.02.98-.04,1.96-.06,2.93-1.5-.1-3-.18-4.5-.25-.01.73-.02,1.45-.03,2.18,1.41.07,2.81.14,4.22.24-.02.97-.04,1.94-.06,2.91Z"/>
    <path class="cls-1" d="m265.73,87.76c.86-.08,2.11-.08,3.92.12,1.7.19,2.89.68,3.68,1.5.78.78,1.27,2.05,1.21,3.42-.06,1.35-.5,2.5-1.26,3.16-.99.85-2.38,1.1-3.94.93-.3-.03-.57-.08-.76-.12-.05,1.52-.1,3.04-.15,4.57-1.02-.11-2.05-.21-3.08-.31.13-4.42.25-8.84.38-13.27Zm2.94,6.25c.18.04.38.08.71.12,1.23.14,2.02-.49,2.06-1.65.04-1-.53-1.75-1.72-1.88-.47-.05-.79-.05-.94-.02-.04,1.14-.08,2.29-.11,3.43Z"/>
    <path class="cls-1" d="m276.26,88.98c.9-.03,2.24.04,3.82.29,1.79.29,3.07.79,3.91,1.7.71.79,1.07,1.82,1,3.13-.09,1.67-1.24,2.66-2.18,2.88,0,.03,0,.05,0,.08.75.51,1.12,1.44,1.35,2.65.28,1.44.55,3.45.74,4.01-1.05-.19-2.1-.38-3.15-.56-.15-.43-.39-1.51-.65-3.22-.22-1.66-.64-2.07-1.6-2.23-.17-.03-.33-.05-.5-.08-.08,1.68-.16,3.36-.24,5.03-1.02-.16-2.04-.31-3.06-.45.19-4.41.39-8.83.58-13.24Zm2.85,6.09c.27.04.54.08.81.13,1.17.19,1.88-.37,1.94-1.37.05-1.01-.49-1.67-1.53-1.86-.59-.09-.91-.1-1.06-.09-.05,1.06-.1,2.12-.15,3.18Z"/>
    <path class="cls-1" d="m297.33,99.48c-.33,4.3-2.73,6.47-6.24,5.71-3.53-.76-5.32-4.23-5.1-7.95.22-3.89,2.64-6.59,6.21-5.82,3.75.82,5.4,4.49,5.13,8.05Zm-8.06-1.65c-.16,2.5.68,4.24,2.16,4.56,1.48.32,2.46-1.16,2.63-3.56.16-2.3-.61-4.25-2.11-4.57-1.48-.32-2.54,1.12-2.69,3.58Z"/>
    <path class="cls-1" d="m300.98,96.79c-.98-.26-1.96-.51-2.94-.75.08-1,.15-1.99.23-2.99,3.03.75,6.04,1.56,9.04,2.44-.09.99-.18,1.99-.27,2.98-.99-.29-1.98-.57-2.97-.85-.29,3.44-.58,6.88-.87,10.33-1.01-.28-2.03-.55-3.04-.82.28-3.45.55-6.89.83-10.34Z"/>
    <path class="cls-1" d="m315.09,106.09c-1.34-.45-2.69-.89-4.05-1.32-.08.81-.16,1.63-.23,2.44,1.51.48,3.01.97,4.51,1.48-.1.97-.2,1.94-.3,2.91-2.49-.85-5-1.65-7.51-2.4.4-4.43.81-8.86,1.21-13.28,2.48.75,4.96,1.54,7.42,2.37-.1.96-.2,1.92-.3,2.89-1.44-.49-2.88-.96-4.33-1.42-.07.72-.14,1.43-.21,2.15,1.36.43,2.71.87,4.06,1.33-.1.96-.19,1.91-.29,2.87Z"/>
    <path class="cls-1" d="m325,114.92c-.45.07-1.52-.03-2.84-.53-4.12-1.56-5.64-5.26-5.28-8.78.48-4.67,3.67-6.04,7.02-4.76,1.31.5,2.31,1.2,2.75,1.68-.3.85-.61,1.7-.91,2.54-.47-.43-1.12-.93-2.02-1.27-1.73-.66-3.37-.01-3.66,2.69-.26,2.41.78,4.33,2.82,5.11.72.28,1.55.41,2.03.38.03.98.06,1.96.08,2.94Z"/>
    <path class="cls-1" d="m330.06,106.63c-.94-.4-1.89-.78-2.84-1.16.12-.98.23-1.97.35-2.95,2.92,1.18,5.83,2.42,8.71,3.72-.13.98-.26,1.95-.39,2.93-.95-.43-1.9-.85-2.86-1.27-.44,3.39-.87,6.78-1.31,10.17-.97-.42-1.95-.84-2.93-1.25.42-3.4.84-6.8,1.26-10.19Z"/>
    <path class="cls-1" d="m340.59,108.24c-.61,4.35-1.22,8.7-1.82,13.05-.96-.46-1.92-.91-2.89-1.36.59-4.36,1.18-8.72,1.77-13.07.98.45,1.97.92,2.95,1.39Z"/>
    <path class="cls-1" d="m351.75,120.88c-.67,4.16-3.1,5.66-6.37,3.95-3.28-1.71-4.69-5.62-4.17-9.24.53-3.79,3.06-5.8,6.37-4.07,3.48,1.83,4.73,5.92,4.17,9.36Zm-7.48-3.82c-.36,2.43.29,4.38,1.67,5.1,1.37.72,2.42-.48,2.78-2.81.34-2.23-.22-4.37-1.61-5.1-1.38-.72-2.49.42-2.84,2.81Z"/>
    <path class="cls-1" d="m352.19,128.32c.7-4.3,1.39-8.61,2.09-12.91,1.12.64,2.24,1.29,3.35,1.95.34,1.65.67,3.3,1,4.95.36,1.62.67,3.71.87,5.5.02,0,.03.02.05.03.14-1.79.38-3.62.72-5.54.17-1.01.35-2.02.52-3.03.86.53,1.71,1.06,2.56,1.6-.75,4.27-1.51,8.54-2.26,12.81-.96-.61-1.92-1.21-2.89-1.8-.34-1.78-.68-3.56-1.02-5.33-.35-1.73-.75-3.85-.99-5.71-.02,0-.03-.02-.05-.03-.22,1.78-.52,3.74-.86,5.83-.18,1.06-.35,2.11-.53,3.17-.85-.5-1.7-.99-2.55-1.47Z"/>
  </g>
  <rect class="cls-3" x="206.09" y="229.14" width="142.75" height="4"/>
  <path class="cls-3" d="m354.09,325.38c-72.67-35.33-162-32-218.67,4,0,0,89.33,75.73,107.33,72.53,18-3.2,111.33-76.53,111.33-76.53Z"/>
  <path class="cls-7" d="m136.76,330.05c56.67-36,146-39.33,218.67-4"/>
  <path class="cls-4" d="m133.73,180.46l63.71.14-.06,61.61,90.35,79.22s-.2,1.87.43,2.7c.62.84,2.5,2.09,2.5,2.71s1.04,4.16,1.66,4.57c.63.41,4.81,2.91,4.39,3.74-.42.84-5.01,3.54-4.81,4.37.21.83-.62,1.66-.83,2.91-.2,1.25,1.04,5.2.21,6.03-.83.84-.21,2.29-1.25,2.92-1.04.62-2.09,1.66-1.87,2.29.21.62,1.04,2.28.62,3.11-.41.83-1.05,3.12.21,3.33,1.25.2-5.73,1.3-5.51,2.33.2,1.05-4.1,3.13-7.24,4.17-3.13,1.03-29.2,6.18-29.2,6.18,0,0,1.05-2.91-1.88-3.12,0,0,.83-3.11-1.26-6.86-2.08-3.74-5.84-9.14-13.14-13.3-7.3-4.16-1.87-.62-3.55-.42-1.67.21-2.92,0-2.92-.62s1.25-3.74-1.46-5.4c-2.71-1.66-1.67.62-5.01,0-3.34-.62-5.85.42-8.14-4.58,0,0-2.92-4.78-19.4-3.54,0,0-1.47-2.49-3.34-2.28,0,0,1.26-2.29,1.04-2.92-.21-.62-1.25-1.65-1.25-1.65l-.21-2.71s1.05-3.74.42-4.57c-.62-.84-1.25-.21-2.29-.84-1.04-.62-1.67-1.24-1.67-1.87s2.09-1.45.21-2.7c-1.88-1.25-2.09-1.67-2.71-1.87-.62-.22-.83-2.5-2.71-2.91-1.88-.41-2.3-2.29-2.71-3.12-.42-.83-1.88-4.58-4.17-5.19,0,0,.42-1.87-2.71-3.75-3.13-1.87-2.09-5.2-2.09-6.44s-.62-2.91.21-2.5c.84.41,1.88.83,2.09-1.04.21-1.87-.62-4.99-2.71-5.2-2.09-.21-1.05,1.46-1.88,1.04s-5.63-5.61-5.43-6.65c.21-1.04.42-2.08,0-2.7-.41-.62.21-3.12-1.04-2.5,0,0-1.67-6.23,1.67-6.23,0,0,1.04,0,.62,3.95,0,0,1.25.83,1.87,1.45.63.63,1.88,2.29,3.55,1.87,0,0-.83-.83-1.46-1.24-.63-.42.63-1.67-.42-2.91-1.04-1.25-1.67-2.08-1.67-2.08v-.83l-1.67-.63s1.88-1.66.2-2.28c-1.67-.62-.83-1.66,0-1.66s1.88,0,1.88-.62-1.04-2.08-2.08-2.08-2.3.62-2.09,1.25c.21.62-.84,1.46,0,2.28.84.83,1.46,2.29.42,2.29s-1.26,1.04-2.09,0c-.83-1.04-2.08-1.04-2.08-1.04,0,0-2.64-3.43-2.92-2.29-.21.83-1.67.83-1.67.83,0,0,1.24-2.84.21-6.45-.84-2.91-1.46-2.29-4.39-6.03-1.9-2.44-7.09-6.45-6.67-7.28.42-.83.63-2.7.42-3.53-.21-.84-2.09-4.58-1.46-5.61.63-1.04,1.25-5.41.42-7.28-.84-1.87-3.96-7.49-8.35-11.64,0,0,.21-.84,0-2.5-.21-1.67,5.01-10.39,4.59-12.06-.41-1.67-.62-2.08.21-3.53.83-1.46,1.46-9.15-.63-11.24-2.09-2.07-.84-.83-.42-2.28.42-1.46.42-2.7.42-2.7Z"/>
  <g>
    <path class="cls-2" d="m215.83,247.01c.11.66.33,1.15.66,1.47.6.59,1.62.89,3.07.89.87,0,1.57-.08,2.11-.23,1.03-.3,1.54-.86,1.54-1.67,0-.47-.25-.84-.75-1.1-.5-.25-1.3-.48-2.39-.67l-1.87-.34c-1.84-.34-3.1-.71-3.79-1.1-1.17-.66-1.75-1.7-1.75-3.11,0-1.29.57-2.36,1.71-3.21,1.14-.85,2.81-1.28,5.02-1.28,1.84,0,3.41.4,4.71,1.21,1.3.8,1.98,1.97,2.05,3.5h-3.47c-.06-.86-.53-1.48-1.39-1.84-.58-.24-1.29-.36-2.15-.36-.95,0-1.71.16-2.28.47-.57.31-.85.75-.85,1.31,0,.51.28.9.84,1.15.36.17,1.12.37,2.29.59l3.03.59c1.33.26,2.32.61,2.99,1.04,1.03.68,1.54,1.66,1.54,2.94s-.61,2.41-1.83,3.27c-1.22.87-2.94,1.3-5.17,1.3s-4.06-.43-5.36-1.28c-1.3-.86-1.95-2.03-1.95-3.53h3.45Z"/>
    <path class="cls-2" d="m232.52,251.46h-3.59v-14.41h3.59v14.41Z"/>
    <path class="cls-2" d="m235.83,237.06h3.78l6.87,10.03v-10.03h3.36v14.41h-3.61l-7.05-10.23v10.23h-3.36v-14.41Z"/>
    <path class="cls-2" d="m254.87,238.57c1.39-1.19,3.16-1.78,5.31-1.78,2.88,0,4.98.8,6.31,2.39.73.89,1.13,1.79,1.18,2.69h-3.61c-.23-.7-.53-1.23-.88-1.58-.64-.63-1.6-.95-2.86-.95s-2.3.44-3.04,1.33c-.74.88-1.12,2.14-1.12,3.76s.39,2.83,1.18,3.64c.78.81,1.78,1.21,2.99,1.21s2.18-.34,2.83-1.03c.36-.37.66-.93.89-1.67h3.59c-.31,1.57-1.1,2.84-2.37,3.82-1.27.98-2.9,1.47-4.89,1.47-2.46,0-4.39-.66-5.8-1.99-1.41-1.34-2.11-3.17-2.11-5.49,0-2.51.8-4.45,2.4-5.81Z"/>
    <path class="cls-2" d="m283.34,239.62h-9.14v3.05h8.39v2.5h-8.39v3.7h9.56v2.59h-13.09v-14.39h12.67v2.55Z"/>
    <path class="cls-2" d="m293.06,241.7v-1.89c1.05-.04,1.79-.1,2.21-.18.67-.12,1.22-.37,1.64-.74.29-.25.51-.59.66-1.02.09-.25.13-.44.13-.57h2.78v14.16h-3.42v-9.77h-4Z"/>
    <path class="cls-2" d="m306.03,245.37c.43-.64,1.06-1.13,1.88-1.45-.82-.46-1.36-.95-1.61-1.48-.25-.53-.37-1.03-.37-1.49,0-1.03.47-1.91,1.4-2.63.93-.73,2.25-1.09,3.95-1.09s3.02.36,3.95,1.09c.93.73,1.4,1.6,1.4,2.63,0,.46-.12.96-.37,1.49-.25.53-.78.99-1.6,1.38.84.39,1.47.91,1.9,1.55.42.64.64,1.36.64,2.16,0,1.19-.53,2.2-1.59,3.04-1.06.84-2.54,1.25-4.44,1.25s-3.34-.42-4.32-1.25c-.98-.84-1.47-1.85-1.47-3.04,0-.79.21-1.51.64-2.16Zm3.46,3.61c.43.39,1.03.58,1.8.58s1.37-.19,1.8-.58c.43-.39.65-.93.65-1.63s-.22-1.28-.66-1.65c-.44-.37-1.04-.56-1.79-.56s-1.35.19-1.79.56c-.44.38-.66.93-.66,1.65s.22,1.24.65,1.63Zm.22-6.45c.38.32.91.49,1.58.49s1.21-.16,1.58-.49c.37-.32.56-.74.56-1.25,0-.56-.19-.99-.56-1.31-.37-.31-.9-.47-1.58-.47s-1.2.16-1.58.47c-.38.31-.57.75-.57,1.31,0,.51.19.93.57,1.25Z"/>
    <path class="cls-2" d="m319.38,245.37c.43-.64,1.06-1.13,1.88-1.45-.82-.46-1.36-.95-1.61-1.48-.25-.53-.37-1.03-.37-1.49,0-1.03.47-1.91,1.4-2.63.93-.73,2.25-1.09,3.95-1.09s3.02.36,3.95,1.09c.93.73,1.4,1.6,1.4,2.63,0,.46-.12.96-.37,1.49-.25.53-.78.99-1.6,1.38.84.39,1.47.91,1.9,1.55.42.64.64,1.36.64,2.16,0,1.19-.53,2.2-1.59,3.04-1.06.84-2.54,1.25-4.44,1.25s-3.34-.42-4.32-1.25c-.98-.84-1.47-1.85-1.47-3.04,0-.79.21-1.51.64-2.16Zm3.46,3.61c.43.39,1.03.58,1.8.58s1.37-.19,1.8-.58c.43-.39.65-.93.65-1.63s-.22-1.28-.66-1.65c-.44-.37-1.04-.56-1.79-.56s-1.35.19-1.79.56c-.44.38-.66.93-.66,1.65s.22,1.24.65,1.63Zm.22-6.45c.38.32.91.49,1.58.49s1.21-.16,1.58-.49c.37-.32.56-.74.56-1.25,0-.56-.19-.99-.56-1.31-.37-.31-.9-.47-1.58-.47s-1.2.16-1.58.47c-.38.31-.57.75-.57,1.31,0,.51.19.93.57,1.25Z"/>
    <path class="cls-2" d="m335.42,247.67c.13.6.39,1.07.76,1.4.37.33.92.49,1.64.49.83,0,1.46-.24,1.89-.73.43-.48.65-1.09.65-1.83s-.2-1.33-.61-1.83c-.41-.5-1.04-.75-1.9-.75-.41,0-.76.04-1.05.13-.52.16-.92.45-1.18.87l-3-.12,1.2-7.81h9.35v2.36h-6.94l-.61,3.09c.52-.28.92-.47,1.21-.56.48-.15,1.07-.22,1.77-.22,1.41,0,2.63.39,3.68,1.18,1.05.79,1.57,1.93,1.57,3.43,0,1.31-.5,2.47-1.51,3.5-1.01,1.03-2.51,1.54-4.52,1.54-1.62,0-2.94-.36-3.98-1.08-1.04-.72-1.62-1.75-1.73-3.07h3.33Z"/>
  </g>
  <g>
    <path class="cls-12" d="m105.36,86.38v225.39s71.39,72.62,139.86,91.91c68.6-19.96,139.86-91.91,139.86-91.91V87.71c-68.33-60.67-204.33-60.67-279.73-1.33Zm263.98,217.17s-63.55,65.53-123.92,83.5c-65.18-17.97-125.28-83.92-125.28-83.92l-.55-206.83c60.45-50.83,182.28-50.08,249.75,1v206.25Z"/>
    <path class="cls-4" d="m113.86,92.2v214.12s70.49,69.48,131.87,86.32c62.37-17.08,131.87-86.32,131.87-86.32V93.47c-63.92-57.63-193.12-57.63-263.74-1.27Zm253.45,211.18s-71.77,67.12-122.88,81.42c-58.83-16.75-123.28-81.42-123.28-81.42V96.89c68.61-48.67,178.95-49.67,246.16,1v205.5Z"/>
  </g>
  <rect class="cls-11" x="99.08" y="273.23" width="292.39" height="62.56"/>
  <g>
    <g>
      <path class="cls-6" d="m374.16,304.02c-.33,0-1.08-.98-1.08-2.59s.75-2.59,1.08-2.59,1.08.98,1.08,2.59-.75,2.59-1.08,2.59Z"/>
      <path class="cls-4" d="m374.16,297.33c-1.42,0-2.58,1.83-2.58,4.09s1.16,4.09,2.58,4.09,2.58-1.83,2.58-4.09-1.15-4.09-2.58-4.09h0Z"/>
    </g>
    <g>
      <rect class="cls-3" x="101.77" y="276.21" width="286.87" height="56.98"/>
      <path class="cls-4" d="m387.63,277.21v54.98H102.77v-54.98h284.87m2-2H100.77v58.98h288.87v-58.98h0Z"/>
    </g>
  </g>
  <g>
    <path class="cls-11" d="m155.51,306.61c1.75-6.62,4.95-11.77,9.61-15.46,4.66-3.69,10.28-5.53,16.87-5.53s11.47,1.81,14.17,5.44c2.7,3.62,3.18,8.7,1.46,15.23-1.25,4.74-3.07,8.63-5.47,11.66-2.4,3.03-5.32,5.39-8.78,7.08-3.46,1.69-7.44,2.53-11.94,2.53s-8.17-.73-10.78-2.19c-2.61-1.46-4.43-3.76-5.46-6.92-1.03-3.15-.92-7.1.33-11.84Zm12.52.06c-1.08,4.09-1.1,7.04-.05,8.82,1.05,1.79,2.88,2.68,5.5,2.68s5.01-.88,6.94-2.63c1.94-1.75,3.5-4.9,4.7-9.43,1.01-3.82.97-6.61-.1-8.37-1.08-1.76-2.93-2.64-5.57-2.64s-4.79.89-6.79,2.68c-2,1.79-3.55,4.75-4.64,8.88Z"/>
    <path class="cls-11" d="m286.58,285.62h16.48l-.15,24.67,12.82-24.67h16.47l-10.7,40.55h-10.26l8.16-30.93-16.07,30.93h-9.29l.27-30.93-8.16,30.93h-10.26l10.7-40.55Z"/>
    <path class="cls-11" d="m200.62,313.45l12.12-.75c-.25,1.94-.12,3.41.41,4.43.86,1.64,2.49,2.46,4.88,2.46,1.79,0,3.28-.42,4.47-1.26,1.19-.84,1.93-1.81,2.22-2.92.28-1.05.06-1.99-.64-2.82-.7-.83-2.64-1.61-5.8-2.35-5.17-1.24-8.66-2.88-10.46-4.92-1.82-2.05-2.31-4.66-1.48-7.83.55-2.08,1.67-4.05,3.37-5.91,1.7-1.85,3.9-3.31,6.6-4.37,2.7-1.06,6.17-1.59,10.39-1.59,5.18,0,8.88.96,11.09,2.89,2.21,1.93,3.02,4.99,2.43,9.2l-11.99.69c.17-1.83-.14-3.15-.93-3.98-.79-.83-2.06-1.24-3.83-1.24-1.46,0-2.64.31-3.54.93-.9.62-1.47,1.37-1.7,2.25-.17.65-.02,1.23.45,1.74.45.54,1.72,1.03,3.81,1.49,5.17,1.18,8.77,2.37,10.82,3.58,2.05,1.21,3.38,2.71,3.99,4.5.61,1.79.62,3.79.03,6-.69,2.6-2.04,5-4.06,7.19-2.02,2.19-4.47,3.86-7.35,4.99-2.88,1.13-6.29,1.7-10.21,1.7-6.9,0-11.32-1.33-13.28-3.98-1.96-2.66-2.57-6.03-1.84-10.12Z"/>
    <path class="cls-11" d="m250.16,285.62h30.98l-2.3,8.71h-18.39l-1.87,7.08h15.71l-2.16,8.19h-15.71l-4.37,16.57h-12.59l10.7-40.55Z"/>
    <g>
      <path class="cls-1" d="m159.63,303.44c1.75-6.62,4.95-11.77,9.61-15.46,4.66-3.69,10.28-5.53,16.87-5.53s11.47,1.81,14.17,5.44c2.7,3.62,3.18,8.7,1.46,15.23-1.25,4.74-3.07,8.63-5.47,11.66-2.4,3.03-5.32,5.39-8.78,7.08-3.46,1.69-7.44,2.53-11.94,2.53s-8.17-.73-10.78-2.19c-2.61-1.46-4.43-3.76-5.46-6.92-1.03-3.15-.92-7.1.33-11.84Zm12.52.06c-1.08,4.09-1.1,7.04-.05,8.82,1.05,1.79,2.88,2.68,5.5,2.68s5.01-.88,6.94-2.63c1.94-1.75,3.5-4.9,4.7-9.43,1.01-3.82.97-6.61-.1-8.37-1.08-1.76-2.93-2.64-5.57-2.64s-4.79.89-6.79,2.68c-2,1.79-3.55,4.75-4.64,8.88Z"/>
      <path class="cls-1" d="m290.7,282.45h16.48l-.15,24.67,12.82-24.67h16.47l-10.7,40.55h-10.26l8.16-30.93-16.07,30.93h-9.29l.27-30.93-8.16,30.93h-10.26l10.7-40.55Z"/>
      <path class="cls-1" d="m204.74,310.28l12.12-.75c-.25,1.94-.12,3.41.41,4.43.86,1.64,2.49,2.46,4.88,2.46,1.79,0,3.28-.42,4.47-1.26,1.19-.84,1.93-1.81,2.22-2.92.28-1.05.06-1.99-.64-2.82-.7-.83-2.64-1.61-5.8-2.35-5.17-1.24-8.66-2.88-10.46-4.92-1.82-2.05-2.31-4.66-1.48-7.83.55-2.08,1.67-4.05,3.37-5.91,1.7-1.85,3.9-3.31,6.6-4.37,2.7-1.06,6.17-1.59,10.39-1.59,5.18,0,8.88.96,11.09,2.89,2.21,1.93,3.02,4.99,2.43,9.2l-11.99.69c.17-1.83-.14-3.15-.93-3.98-.79-.83-2.06-1.24-3.83-1.24-1.46,0-2.64.31-3.54.93-.9.62-1.47,1.37-1.7,2.25-.17.65-.02,1.23.45,1.74.45.54,1.72,1.03,3.81,1.49,5.17,1.18,8.77,2.37,10.82,3.58,2.05,1.21,3.38,2.71,3.99,4.5.61,1.79.62,3.79.03,6-.69,2.6-2.04,5-4.06,7.19-2.02,2.19-4.47,3.86-7.35,4.99-2.88,1.13-6.29,1.7-10.21,1.7-6.9,0-11.32-1.33-13.28-3.98-1.96-2.66-2.57-6.03-1.84-10.12Z"/>
      <path class="cls-1" d="m254.28,282.45h30.98l-2.3,8.71h-18.39l-1.87,7.08h15.71l-2.16,8.19h-15.71l-4.37,16.57h-12.59l10.7-40.55Z"/>
    </g>
  </g>
</svg>